<svg width="199" height="133" viewBox="0 0 199 133" fill="none" xmlns="http://www.w3.org/2000/svg">
<title>Distant Life</title>
<path fill-rule="evenodd" clip-rule="evenodd" d="M95.7951 0L97.8168 5.13183C102.079 15.9506 108.076 33.2517 112.225 50.0297C114.299 58.4175 115.921 66.7115 116.627 74.0191C117.328 81.2766 117.148 87.7613 115.457 92.4119C107.37 114.65 89.1482 124.686 69.246 128.666C65.0881 129.498 59.8358 129.378 54.1535 128.691C48.4472 128.002 42.1981 126.725 35.9988 125.173C23.6011 122.07 11.297 117.837 3.73994 114.88L0 113.417L3.73994 111.953C11.1764 109.043 23.342 103.497 35.5878 96.3439C47.8605 89.1754 60.0741 80.4732 67.7306 71.2854C75.3942 62.0891 81.521 49.2297 86.0661 36.7955C90.6036 24.3822 93.5182 12.523 94.8085 5.42671L95.7951 0ZM96.8184 11.3078C95.2278 18.4657 92.6279 27.9992 89.0181 37.8746C84.4243 50.4418 78.1483 63.6937 70.1451 73.2975C62.1349 82.9098 49.5428 91.8327 37.1731 99.0579C26.6394 105.211 16.1656 110.19 8.60657 113.367C16.0545 116.121 26.3833 119.526 36.7621 122.124C42.884 123.657 48.9969 124.902 54.5307 125.571C60.0885 126.243 64.9543 126.319 68.6297 125.584C87.8943 121.731 104.923 112.184 112.503 91.3378C113.945 87.3717 114.189 81.4699 113.499 74.3213C112.813 67.2229 111.228 59.0913 109.174 50.7843C105.659 36.5699 100.795 21.9499 96.8184 11.3078Z" fill="#C4E0F9"/>
<path fill-rule="evenodd" clip-rule="evenodd" d="M141.396 28.0233C145.068 28.0233 148.045 25.0465 148.045 21.3746C148.045 17.7026 145.068 14.7259 141.396 14.7259C137.725 14.7259 134.748 17.7026 134.748 21.3746C134.748 25.0465 137.725 28.0233 141.396 28.0233ZM141.396 31.1663C146.804 31.1663 151.188 26.7824 151.188 21.3746C151.188 15.9668 146.804 11.5829 141.396 11.5829C135.989 11.5829 131.605 15.9668 131.605 21.3746C131.605 26.7824 135.989 31.1663 141.396 31.1663Z" fill="#C4E0F9"/>
<path fill-rule="evenodd" clip-rule="evenodd" d="M141.396 118.107C145.068 118.107 148.045 115.13 148.045 111.458C148.045 107.786 145.068 104.81 141.396 104.81C137.725 104.81 134.748 107.786 134.748 111.458C134.748 115.13 137.725 118.107 141.396 118.107ZM141.396 121.25C146.804 121.25 151.188 116.866 151.188 111.458C151.188 106.05 146.804 101.667 141.396 101.667C135.989 101.667 131.605 106.05 131.605 111.458C131.605 116.866 135.989 121.25 141.396 121.25Z" fill="#C4E0F9"/>
<path fill-rule="evenodd" clip-rule="evenodd" d="M188.397 129.857C192.069 129.857 195.045 126.88 195.045 123.208C195.045 119.536 192.069 116.56 188.397 116.56C184.725 116.56 181.748 119.536 181.748 123.208C181.748 126.88 184.725 129.857 188.397 129.857ZM188.397 133C193.804 133 198.188 128.616 198.188 123.208C198.188 117.8 193.804 113.417 188.397 113.417C182.989 113.417 178.605 117.8 178.605 123.208C178.605 128.616 182.989 133 188.397 133Z" fill="#C4E0F9"/>
<path fill-rule="evenodd" clip-rule="evenodd" d="M140.257 102.355L140.248 30.852L141.82 30.8518L141.828 102.355L140.257 102.355Z" fill="#C4E0F9"/>
<path fill-rule="evenodd" clip-rule="evenodd" d="M178.75 121.999L150.463 113.356L150.922 111.853L179.209 120.497L178.75 121.999Z" fill="#C4E0F9"/>
</svg>
