<svg width="173" height="27" viewBox="0 0 173 27" fill="none" xmlns="http://www.w3.org/2000/svg">
<path d="M58.84 6.904C61.112 6.904 62.928 7.592 64.288 8.968C65.664 10.328 66.352 12.16 66.352 14.464C66.352 16.752 65.664 18.584 64.288 19.96C62.928 21.32 61.112 22 58.84 22H54.4V6.904H58.84ZM56.296 20.344H58.84C60.52 20.344 61.856 19.792 62.848 18.688C63.84 17.568 64.336 16.152 64.336 14.44C64.336 12.728 63.832 11.328 62.824 10.24C61.832 9.136 60.504 8.584 58.84 8.584H56.296V20.344ZM70.4112 10.504H72.3072V22H70.4112V10.504ZM71.3472 7.816C70.9632 7.816 70.6592 7.712 70.4352 7.504C70.2272 7.28 70.1232 6.992 70.1232 6.64C70.1232 6.272 70.2272 5.984 70.4352 5.776C70.6592 5.552 70.9632 5.44 71.3472 5.44C71.7312 5.44 72.0352 5.552 72.2592 5.776C72.4992 5.984 72.6192 6.272 72.6192 6.64C72.6192 6.992 72.4992 7.28 72.2592 7.504C72.0352 7.712 71.7312 7.816 71.3472 7.816ZM76.8631 13.336C76.8631 12.392 77.2631 11.64 78.0631 11.08C78.8791 10.52 79.9751 10.24 81.3511 10.24C82.7271 10.24 83.7991 10.528 84.5671 11.104C85.3511 11.68 85.7591 12.408 85.7911 13.288H83.9431C83.7991 12.248 82.9191 11.728 81.3031 11.728C80.5191 11.728 79.9111 11.904 79.4791 12.256C79.0631 12.608 78.8551 12.992 78.8551 13.408C78.8551 13.808 79.0151 14.152 79.3351 14.44C79.6551 14.712 80.1671 14.952 80.8711 15.16L83.1751 15.928C84.1511 16.232 84.8951 16.624 85.4071 17.104C85.9351 17.568 86.1991 18.216 86.1991 19.048C86.1991 19.864 85.7751 20.608 84.9271 21.28C84.0791 21.936 82.8951 22.264 81.3751 22.264C79.8551 22.264 78.6711 21.928 77.8231 21.256C76.9751 20.568 76.5271 19.688 76.4791 18.616H78.3031C78.3351 19.336 78.6231 19.88 79.1671 20.248C79.7271 20.6 80.4231 20.776 81.2551 20.776C82.0871 20.776 82.7751 20.6 83.3191 20.248C83.8631 19.896 84.1351 19.48 84.1351 19C84.1351 18.504 83.9751 18.128 83.6551 17.872C83.3351 17.616 82.8151 17.392 82.0951 17.2L79.8631 16.456C77.8631 15.864 76.8631 14.824 76.8631 13.336ZM96.0959 21.664C94.7199 22.304 93.4639 22.44 92.3279 22.072C91.5119 21.816 90.9359 21.28 90.5999 20.464C90.4239 20.064 90.3359 19.584 90.3359 19.024V11.968H88.4879V10.528H90.3359V7.336H92.2079V10.528H95.8079V11.968H92.2079V19C92.2079 20.168 92.7519 20.752 93.8399 20.752C94.4319 20.752 95.0959 20.608 95.8319 20.32L96.0959 21.664ZM106.223 14.56C106.223 13.52 106.007 12.776 105.575 12.328C105.143 11.88 104.511 11.656 103.679 11.656C102.863 11.656 102.199 11.824 101.687 12.16C101.191 12.48 100.943 12.992 100.943 13.696H98.8553C98.8553 11.936 99.7993 10.848 101.687 10.432C102.263 10.304 102.887 10.24 103.559 10.24C104.983 10.24 106.095 10.6 106.895 11.32C107.695 12.04 108.095 13.136 108.095 14.608V22H106.463L106.271 20.08C105.567 21.536 104.295 22.264 102.455 22.264C101.223 22.264 100.231 21.92 99.4793 21.232C98.7433 20.544 98.3753 19.688 98.3753 18.664C98.3753 17.64 98.7833 16.84 99.5993 16.264C100.431 15.688 101.463 15.4 102.695 15.4C103.927 15.4 105.103 15.608 106.223 16.024V14.56ZM106.223 17.224C105.087 16.904 104.095 16.744 103.247 16.744C102.399 16.744 101.711 16.896 101.183 17.2C100.655 17.504 100.391 17.984 100.391 18.64C100.391 20.08 101.207 20.8 102.839 20.8C103.767 20.8 104.559 20.472 105.215 19.816C105.887 19.144 106.223 18.28 106.223 17.224ZM114.373 12.736C115.125 11.072 116.413 10.24 118.237 10.24C119.597 10.24 120.653 10.688 121.405 11.584C122.173 12.48 122.557 13.704 122.557 15.256V22H120.685V15.256C120.685 14.152 120.421 13.32 119.893 12.76C119.381 12.2 118.645 11.92 117.685 11.92C116.725 11.92 115.949 12.312 115.357 13.096C114.765 13.88 114.453 14.968 114.421 16.36V22H112.525V10.528H114.157L114.373 12.736ZM133.01 21.664C131.634 22.304 130.378 22.44 129.242 22.072C128.426 21.816 127.85 21.28 127.514 20.464C127.338 20.064 127.25 19.584 127.25 19.024V11.968H125.402V10.528H127.25V7.336H129.122V10.528H132.722V11.968H129.122V19C129.122 20.168 129.666 20.752 130.754 20.752C131.346 20.752 132.01 20.608 132.746 20.32L133.01 21.664ZM137.929 20.344H144.649V22H136.033V6.904H137.929V20.344ZM147.38 10.504H149.276V22H147.38V10.504ZM148.316 7.816C147.932 7.816 147.628 7.712 147.404 7.504C147.196 7.28 147.092 6.992 147.092 6.64C147.092 6.272 147.196 5.984 147.404 5.776C147.628 5.552 147.932 5.44 148.316 5.44C148.7 5.44 149.004 5.552 149.228 5.776C149.468 5.984 149.588 6.272 149.588 6.64C149.588 6.992 149.468 7.28 149.228 7.504C149.004 7.712 148.7 7.816 148.316 7.816ZM160 7.264C159.472 7.056 159.056 6.952 158.752 6.952C158.192 6.952 157.752 7.088 157.432 7.36C157.112 7.632 156.952 8.112 156.952 8.8V10.528H159.328V11.824H156.952V22H155.08V11.824H153.184V10.528H155.08V8.776C155.08 7.64 155.392 6.808 156.016 6.28C156.64 5.736 157.36 5.464 158.176 5.464C158.992 5.464 159.712 5.568 160.336 5.776L160 7.264ZM166.618 20.728C168.202 20.728 169.106 20.032 169.33 18.64H171.274C171.098 19.792 170.586 20.688 169.738 21.328C168.906 21.952 167.866 22.264 166.618 22.264C165.082 22.264 163.834 21.72 162.874 20.632C161.914 19.528 161.434 18.064 161.434 16.24C161.434 14.416 161.914 12.96 162.874 11.872C163.85 10.784 165.138 10.24 166.738 10.24C168.354 10.24 169.554 10.864 170.338 12.112C171.138 13.36 171.418 14.88 171.178 16.672H163.33C163.33 17.856 163.618 18.832 164.194 19.6C164.77 20.352 165.578 20.728 166.618 20.728ZM168.01 12.04C167.642 11.848 167.194 11.752 166.666 11.752C165.69 11.752 164.914 12.088 164.338 12.76C163.778 13.416 163.45 14.24 163.354 15.232H169.474C169.474 13.632 168.986 12.568 168.01 12.04Z" fill="white"/>
<path fill-rule="evenodd" clip-rule="evenodd" d="M19.3342 0L19.7422 1.03575C20.6024 3.21928 21.8127 6.71112 22.6502 10.0974C23.0688 11.7903 23.3962 13.4643 23.5386 14.9392C23.6801 16.4039 23.6437 17.7127 23.3024 18.6513C21.6703 23.1395 17.9926 25.1651 13.9758 25.9684C13.1366 26.1363 12.0765 26.1121 10.9297 25.9735C9.77801 25.8343 8.51677 25.5767 7.26557 25.2635C4.76336 24.6371 2.28006 23.7829 0.754826 23.186L0 22.8907L0.754826 22.5953C2.25572 22.008 4.71106 20.8886 7.18262 19.4449C9.65961 17.9981 12.1246 16.2418 13.6699 14.3874C15.2167 12.5313 16.4532 9.93595 17.3706 7.42637C18.2864 4.92101 18.8746 2.52749 19.135 1.09526L19.3342 0ZM19.5407 2.28224C19.2196 3.7269 18.6949 5.65102 17.9664 7.64415C17.0392 10.1806 15.7725 12.8552 14.1573 14.7935C12.5406 16.7335 9.99913 18.5344 7.50257 19.9927C5.37658 21.2345 3.26267 22.2395 1.73705 22.8807C3.24025 23.4366 5.32489 24.1238 7.41962 24.6482C8.65519 24.9575 9.88896 25.2088 11.0058 25.3438C12.1275 25.4793 13.1096 25.4948 13.8514 25.3464C17.7395 24.5688 21.1763 22.6418 22.7062 18.4345C22.9973 17.6341 23.0466 16.4429 22.9072 15.0001C22.7689 13.5675 22.449 11.9263 22.0344 10.2497C21.3249 7.38083 20.3434 4.4301 19.5407 2.28224Z" fill="#EDDE43"/>
<path fill-rule="evenodd" clip-rule="evenodd" d="M28.5378 5.65587C29.2789 5.65587 29.8797 5.05509 29.8797 4.31398C29.8797 3.57287 29.2789 2.97209 28.5378 2.97209C27.7967 2.97209 27.1959 3.57287 27.1959 4.31398C27.1959 5.05509 27.7967 5.65587 28.5378 5.65587ZM28.5378 6.29022C29.6292 6.29022 30.514 5.40543 30.514 4.31398C30.514 3.22253 29.6292 2.33774 28.5378 2.33774C27.4463 2.33774 26.5615 3.22253 26.5615 4.31398C26.5615 5.40543 27.4463 6.29022 28.5378 6.29022Z" fill="#EDDE43"/>
<path fill-rule="evenodd" clip-rule="evenodd" d="M28.5378 23.8373C29.2789 23.8373 29.8797 23.2365 29.8797 22.4954C29.8797 21.7543 29.2789 21.1535 28.5378 21.1535C27.7967 21.1535 27.1959 21.7543 27.1959 22.4954C27.1959 23.2365 27.7967 23.8373 28.5378 23.8373ZM28.5378 24.4716C29.6292 24.4716 30.514 23.5869 30.514 22.4954C30.514 21.404 29.6292 20.5192 28.5378 20.5192C27.4463 20.5192 26.5615 21.404 26.5615 22.4954C26.5615 23.5869 27.4463 24.4716 28.5378 24.4716Z" fill="#EDDE43"/>
<path fill-rule="evenodd" clip-rule="evenodd" d="M38.0237 26.2088C38.7648 26.2088 39.3656 25.608 39.3656 24.8669C39.3656 24.1258 38.7648 23.525 38.0237 23.525C37.2826 23.525 36.6818 24.1258 36.6818 24.8669C36.6818 25.608 37.2826 26.2088 38.0237 26.2088ZM38.0237 26.8431C39.1152 26.8431 40 25.9583 40 24.8669C40 23.7754 39.1152 22.8907 38.0237 22.8907C36.9323 22.8907 36.0475 23.7754 36.0475 24.8669C36.0475 25.9583 36.9323 26.8431 38.0237 26.8431Z" fill="#EDDE43"/>
<path fill-rule="evenodd" clip-rule="evenodd" d="M28.3077 20.6582L28.306 6.22678L28.6232 6.22675L28.6249 20.6582L28.3077 20.6582Z" fill="#EDDE43"/>
<path fill-rule="evenodd" clip-rule="evenodd" d="M36.0768 24.6229L30.3676 22.8785L30.4603 22.5751L36.1695 24.3196L36.0768 24.6229Z" fill="#EDDE43"/>
</svg>
